# xmcd
#
# Track frame offsets:
# 150
# 17755
# 32244
# 49163
# 64618
# 84053
# 98182
# 116521
# 134719
# 148599
# 164552
# 179036
# 198719
#
# Disc length: 2839 seconds
#
#
# Revision: 0
# Processed by: cddbd v1.5.1PL2 Copyright (c) Steve Scherf et al.
# Submitted via: FreeRIP 2.944 
#
DISCID=bd0b150d
DTITLE=Northwestern University - <undertones>
DYEAR=2005
DGENRE=Bebob
TTITLE0=Breakaway
TTITLE1=The Way You Love Me
TTITLE2=She's So High Above Me
TTITLE3=Candy
TTITLE4=She Will be Loved
TTITLE5=Strong Enough
TTITLE6=Why Georgia
TTITLE7=100 Years
TTITLE8=So Far Away
TTITLE9=One of Us
TTITLE10=Out of My League
TTITLE11=My Immortal
TTITLE12=Eye Of the Tiger
EXTD=
EXTT0=
EXTT1=
EXTT2=
EXTT3=
EXTT4=
EXTT5=
EXTT6=
EXTT7=
EXTT8=
EXTT9=
EXTT10=
EXTT11=
EXTT12=
PLAYORDER=
